<?xml version="1.0" encoding="utf-8"?>
<!-- Generator: Adobe Illustrator 26.3.1, SVG Export Plug-In . SVG Version: 6.00 Build 0)  -->
<svg version="1.1" id="Capa_1" xmlns="http://www.w3.org/2000/svg" xmlns:xlink="http://www.w3.org/1999/xlink" x="0px" y="0px"
	 viewBox="0 0 336 235.9" style="enable-background:new 0 0 336 235.9;" xml:space="preserve">
<style type="text/css">
	.st0{fill:#5B5B5B;}
</style>
<path class="st0" d="M170.2,205.1c-44.6-0.5-82.5-14.3-118.2-35.3c-17.5-10.3-34-22.3-49.1-35.9c-1.7-1.5-3-2.6-0.9-5.2
	c29.2-34.9,62.6-64.5,104.4-83.5C155.6,23,203,28.5,248.9,54.8c32.7,18.8,60.2,43.8,84.4,72.6c2.1,2.5,2.9,4.2-0.2,6.9
	c-38.2,32.9-80.6,57.6-130.7,67.5c-5.5,1.1-11.2,1.9-16.8,2.4C179.7,204.8,173.6,204.9,170.2,205.1z M240.7,118.5
	c0.2-39.6-32.3-72.6-71.7-73c-40.1-0.3-73.3,32.4-73.4,72.3c0,40.2,32.5,72.9,72.8,73C207.8,190.8,240.5,158.1,240.7,118.5z"/>
<path class="st0" d="M181.1,72.5c-12.3,13.2-13.4,25.9-3.6,35.9s22.2,9,36-2.9c6.1,10.6,3.1,35.9-15.5,50.5
	c-18.6,14.6-45,13.7-62.4-2.2c-17.1-15.3-20.7-41.6-8.4-61.1C138.8,74.2,163.3,65,181.1,72.5z"/>
</svg>
